<svg width="32" height="31" viewBox="0 0 32 31" fill="none" xmlns="http://www.w3.org/2000/svg">
<path fill-rule="evenodd" clip-rule="evenodd" d="M21.5965 11.5963H23.2137C25.506 11.5963 26.0802 11.4626 27.3946 10.9521C28.8382 10.3915 31.26 8.37516 31.26 8.37516L25.8889 8.26121L28.6831 1.93271L22.6962 5.11481L22.2407 0C22.2407 0 20.204 1.95668 19.6638 3.22118C19.0264 4.71337 19.0195 5.75424 19.0195 8.04643V9.01932" fill="#51AF87"/>
<path fill-rule="evenodd" clip-rule="evenodd" d="M21.9915 9.61384L20.6233 8.3709C19.0553 6.94649 16.861 6.57742 15.4634 8.16895C12.3238 11.7442 8.08396 16.4876 5.77721 19.9454C3.9057 22.7505 0.162625 28.3609 0.162625 28.3609C-0.0933951 28.7446 -0.0427656 29.2555 0.283734 29.5816L0.493236 29.7908C0.800795 30.0981 1.2756 30.1629 1.65415 29.949C1.65415 29.949 5.24325 27.9218 7.03784 26.9083C12.884 23.6062 18.0308 19.7711 23.1944 14.6113C24.6743 13.1324 23.2148 10.7246 21.9915 9.61384Z" fill="#FA9B6B"/>
<path fill-rule="evenodd" clip-rule="evenodd" d="M17.7509 13.1543C17.6225 13.1543 17.4972 13.1927 17.3908 13.2644C17.2844 13.3361 17.2018 13.438 17.1536 13.5569C17.1055 13.6759 17.094 13.8065 17.1206 13.9321C17.1472 14.0576 17.2107 14.1723 17.3029 14.2616L20.3479 17.3066C20.6661 17.018 20.9844 16.7361 21.3017 16.4384L18.2139 13.3506C18.1538 13.2885 18.0819 13.2391 18.0023 13.2054C17.9228 13.1717 17.8372 13.1543 17.7509 13.1543ZM11.1122 13.1744C10.8223 13.5133 10.5524 13.8115 10.2666 14.1509L12.3906 16.2748C12.4499 16.3368 12.5211 16.3862 12.5998 16.4203C12.6785 16.4544 12.7632 16.4725 12.8489 16.4734C12.9347 16.4743 13.0197 16.4581 13.0992 16.4257C13.1786 16.3933 13.2508 16.3454 13.3115 16.2847C13.3721 16.2241 13.42 16.1519 13.4524 16.0725C13.4848 15.9931 13.501 15.9079 13.5001 15.8222C13.4992 15.7364 13.4812 15.6517 13.4471 15.573C13.413 15.4943 13.3635 15.4232 13.3016 15.3638L11.1122 13.1744ZM10.3824 20.6436C10.2541 20.6436 10.1287 20.682 10.0224 20.7537C9.91599 20.8255 9.83345 20.9273 9.78534 21.0463C9.73723 21.1652 9.72573 21.2959 9.75231 21.4214C9.77889 21.5469 9.84225 21.6616 9.93444 21.7508L12.0181 23.8345C12.3815 23.5911 12.7436 23.3475 13.1028 23.0972L10.8454 20.8398C10.7854 20.7777 10.7134 20.7284 10.6339 20.6947C10.5543 20.6609 10.4688 20.6435 10.3824 20.6436ZM4.14386 22.3926C3.82123 22.8762 3.73257 23.0074 3.41406 23.4847L5.30399 25.3747C5.36333 25.4366 5.43447 25.4861 5.51318 25.5202C5.59189 25.5542 5.67655 25.5723 5.76232 25.5732C5.84809 25.5742 5.93314 25.5579 6.01256 25.5255C6.09198 25.4931 6.16424 25.4452 6.22489 25.3846C6.28554 25.3239 6.33342 25.2517 6.36582 25.1723C6.39822 25.0929 6.4144 25.0078 6.41348 24.922C6.41255 24.8362 6.39457 24.7516 6.36047 24.6729C6.32638 24.5942 6.27692 24.523 6.21498 24.4637L4.14386 22.3926Z" fill="#F98246"/>
</svg>
