<svg width="60" height="60" viewBox="0 0 60 60" fill="none" xmlns="http://www.w3.org/2000/svg">
<circle cx="30" cy="30" r="30" fill="#FEFEFE"/>
<path fill-rule="evenodd" clip-rule="evenodd" d="M35.5965 26.5963H37.2137C39.506 26.5963 40.0802 26.4626 41.3946 25.9521C42.8382 25.3915 45.26 23.3752 45.26 23.3752L39.8889 23.2612L42.6831 16.9327L36.6962 20.1148L36.2407 15C36.2407 15 34.204 16.9567 33.6638 18.2212C33.0264 19.7134 33.0195 20.7542 33.0195 23.0464V24.0193" fill="#51AF87"/>
<path fill-rule="evenodd" clip-rule="evenodd" d="M35.9915 24.6138L34.6233 23.3709C33.0553 21.9465 30.861 21.5774 29.4634 23.1689C26.3238 26.7442 22.084 31.4876 19.7772 34.9454C17.9057 37.7505 14.1626 43.3609 14.1626 43.3609C13.9066 43.7446 13.9572 44.2555 14.2837 44.5816L14.4932 44.7908C14.8008 45.0981 15.2756 45.1629 15.6542 44.949C15.6542 44.949 19.2433 42.9218 21.0378 41.9083C26.884 38.6062 32.0308 34.7711 37.1944 29.6113C38.6743 28.1324 37.2148 25.7246 35.9915 24.6138Z" fill="#FA9B6B"/>
<path fill-rule="evenodd" clip-rule="evenodd" d="M31.7509 28.1543C31.6225 28.1543 31.4972 28.1927 31.3908 28.2644C31.2844 28.3361 31.2018 28.438 31.1536 28.5569C31.1055 28.6759 31.094 28.8065 31.1206 28.9321C31.1472 29.0576 31.2107 29.1723 31.3029 29.2616L34.3479 32.3066C34.6661 32.018 34.9844 31.7361 35.3017 31.4384L32.2139 28.3506C32.1538 28.2885 32.0819 28.2391 32.0023 28.2054C31.9228 28.1717 31.8372 28.1543 31.7509 28.1543ZM25.1122 28.1744C24.8223 28.5133 24.5524 28.8115 24.2666 29.1509L26.3906 31.2748C26.4499 31.3368 26.5211 31.3862 26.5998 31.4203C26.6785 31.4544 26.7632 31.4725 26.8489 31.4734C26.9347 31.4743 27.0197 31.4581 27.0992 31.4257C27.1786 31.3933 27.2508 31.3454 27.3115 31.2847C27.3721 31.2241 27.42 31.1519 27.4524 31.0725C27.4848 30.9931 27.501 30.9079 27.5001 30.8222C27.4992 30.7364 27.4812 30.6517 27.4471 30.573C27.413 30.4943 27.3635 30.4232 27.3016 30.3638L25.1122 28.1744ZM24.3824 35.6436C24.2541 35.6436 24.1287 35.682 24.0224 35.7537C23.916 35.8255 23.8335 35.9273 23.7853 36.0463C23.7372 36.1652 23.7257 36.2959 23.7523 36.4214C23.7789 36.5469 23.8422 36.6616 23.9344 36.7508L26.0181 38.8345C26.3815 38.5911 26.7436 38.3475 27.1028 38.0972L24.8454 35.8398C24.7854 35.7777 24.7134 35.7284 24.6339 35.6947C24.5543 35.6609 24.4688 35.6435 24.3824 35.6436ZM18.1439 37.3926C17.8212 37.8762 17.7326 38.0074 17.4141 38.4847L19.304 40.3747C19.3633 40.4366 19.4345 40.4861 19.5132 40.5202C19.5919 40.5542 19.6766 40.5723 19.7623 40.5732C19.8481 40.5742 19.9331 40.5579 20.0126 40.5255C20.092 40.4931 20.1642 40.4452 20.2249 40.3846C20.2855 40.3239 20.3334 40.2517 20.3658 40.1723C20.3982 40.0929 20.4144 40.0078 20.4135 39.922C20.4126 39.8362 20.3946 39.7516 20.3605 39.6729C20.3264 39.5942 20.2769 39.523 20.215 39.4637L18.1439 37.3926Z" fill="#F98246"/>
</svg>
