<svg width="806" height="806" viewBox="0 0 806 806" fill="none" xmlns="http://www.w3.org/2000/svg">
<path d="M685.619 794.193H201.155C142.855 794.193 140.492 746.932 140.492 688.631V117.279C140.492 117.279 142.814 11.8066 201.065 11.8066H673.768C694 11.8066 710.4 28.2069 710.4 48.4387V589.518C710.4 609.75 694 626.15 673.768 626.15H673.762L645.95 685.391L673.762 744.632H685.619C699.305 744.632 710.4 755.727 710.4 769.414C710.4 783.098 699.305 794.193 685.619 794.193Z" fill="#F6BB42"/>
<path d="M95.5938 117.278V688.63C95.5938 744.041 138.296 789.449 192.585 793.816V12.1758C138.304 16.5002 95.5938 61.8865 95.5938 117.278Z" fill="#F98246"/>
<path d="M673.769 626.15C694.001 626.15 710.401 609.75 710.401 589.518V48.4387C710.401 28.2069 694.001 11.8066 673.769 11.8066H610.8C631.032 11.8066 647.433 28.2069 647.433 48.4387V589.518C647.433 609.75 631.032 626.15 610.8 626.15H610.794L582.982 685.391L610.794 744.632H622.651C636.337 744.632 647.433 755.727 647.433 769.414C647.433 783.1 636.337 794.193 622.651 794.193H685.62C699.306 794.193 710.401 783.098 710.401 769.414C710.401 755.727 699.306 744.632 685.62 744.632H673.763L645.951 685.391L673.763 626.15H673.769Z" fill="#FFAC33"/>
<path d="M673.763 744.632H206.097C172.856 744.632 145.908 718.11 145.908 685.391C145.908 652.673 172.856 626.15 206.097 626.15H673.763V744.632Z" fill="#F0F5FA"/>
<path d="M610.793 626.15H673.762V744.632H610.793V626.15Z" fill="#E4ECF2"/>
<path d="M587.358 236.794C587.358 206.072 562.452 181.166 531.73 181.166C521.82 181.155 512.088 183.803 503.551 188.836C504.45 184.206 504.935 179.43 504.935 174.537C504.935 133.333 471.533 99.9316 430.329 99.9316C389.126 99.9316 355.724 133.333 355.724 174.537C355.724 179.595 356.234 184.533 357.193 189.309C348.469 183.97 338.436 181.151 328.208 181.166C297.486 181.166 272.58 206.072 272.58 236.794C272.58 267.517 297.486 292.422 328.208 292.422L353.641 292.906V444.999H507.337V292.906L532.451 292.405C562.839 292.016 587.358 267.276 587.358 236.794Z" fill="white"/>
<path d="M353.643 393.266H507.338V444.999H353.643V393.266Z" fill="#F98246"/>
<path d="M275.623 505.637H623.103V550.348H275.623V505.637Z" fill="white"/>
</svg>
