<svg width="806" height="806" viewBox="0 0 806 806" fill="none" xmlns="http://www.w3.org/2000/svg">
<g clip-path="url(#clip0_241_14)">
<path d="M806 403C806 625.557 625.557 806 403 806C180.443 806 0 625.557 0 403C0 180.443 180.443 0 403 0C625.557 0 806 180.443 806 403Z" fill="#FFCC4D"/>
<path opacity="0.25" d="M444 804C466 802 484.74 797.693 493 796C558.5 778.5 586.5 765.5 638.5 730C664 710.5 658.5 715.5 688.5 688C753 615.5 780.581 564.5 801 470C801.575 467.339 806.516 411.191 807 408.5L620.142 219.046C618.65 217.49 616.609 216.579 614.454 216.506C612.668 216.506 611.004 217.534 609.552 218.744L595.724 204.927C594.212 203.235 592.09 202.213 589.824 202.084C583.651 204.14 581.624 206.196 581.624 210.308V227.3L572.547 218.29C571.619 217.304 570.423 216.61 569.106 216.294C567.789 215.977 566.409 216.051 565.133 216.506C561.018 216.506 558.991 220.618 558.991 224.73V284.293C558.991 288.223 559.808 291.73 561.17 294.996C561.563 295.933 562.198 296.689 562.682 297.596C563.893 299.743 565.224 301.829 566.919 303.613C567.13 303.855 567.221 304.217 567.493 304.52L581.624 318.609V374.936L480.079 273.499L479.655 273.136L479.564 273.015C474.076 267.6 468.1 262.701 461.712 258.382L461.531 258.321C458.323 256.144 454.723 254.572 451.304 252.697C447.673 250.702 444.223 248.374 440.38 246.741C425.195 240.334 408.875 237.044 392.392 237.066C366.945 237.066 343.223 244.867 323.525 258.079C320.983 259.803 318.805 261.979 316.384 263.854L221.707 169.28C215.535 163.112 207.365 159 199.135 159C190.905 159 182.675 163.112 176.502 169.28C170.33 173.361 166.184 181.585 160.012 189.839C149.724 204.201 143.582 224.7 141.524 241.148C139.467 257.565 143.582 274.043 151.812 288.435C153.143 290.098 154.565 291.67 156.109 293.212L186.79 323.87V403.478C184.732 403.478 184.702 405.534 182.645 405.534C178.53 407.59 176.502 411.702 176.502 417.87C176.502 465.126 170.299 500.108 170.299 551.447C170.299 557.614 174.445 563.752 178.56 567.864L416 806L444 804Z" fill="black"/>
<path d="M199.139 159C190.904 159 182.669 163.111 176.493 169.278C170.347 173.389 166.199 181.581 160.053 189.834C149.76 204.193 143.583 224.749 141.525 241.164C139.466 257.609 143.583 274.054 151.818 288.413C160.053 298.691 172.406 306.913 186.787 308.969V403.467C184.728 403.467 184.728 405.522 182.669 405.522C178.552 407.578 176.493 411.689 176.493 417.856C176.493 465.105 170.347 500.05 170.347 551.41C170.347 557.547 174.465 563.713 178.552 567.825C182.669 571.936 188.846 573.992 195.022 573.992C201.107 574.156 207.016 571.943 211.492 567.825C215.609 563.713 219.727 559.602 219.727 553.466C219.727 510.298 215.609 460.993 215.609 419.911C215.609 413.745 211.492 409.633 209.433 407.578C207.374 405.522 207.374 405.522 203.257 405.522V311.024C219.727 308.969 232.049 302.802 240.284 292.524C248.519 282.246 248.519 269.943 250.578 257.609V253.498C252.637 234.997 244.735 209.445 236.5 193C232.5 181.5 229.775 176.904 221.786 169.278C215.609 163.111 207.374 159 199.139 159ZM590.09 202.138C583.914 204.193 581.855 206.249 581.855 210.36V292.524C579.964 291.561 578.383 290.087 577.291 288.269C576.199 286.452 575.64 284.365 575.679 282.246V224.749C575.679 220.638 571.561 214.471 565.385 216.527C561.268 216.527 559.209 220.638 559.209 224.749V284.302C559.209 298.691 569.503 308.969 581.855 313.08V401.411C579.797 401.411 579.797 403.467 577.738 403.467C573.62 405.522 571.561 409.633 571.561 417.856C571.561 465.105 567.444 500.05 567.444 551.41C567.444 557.547 571.561 563.713 575.679 567.825C579.796 571.936 585.973 573.992 592.149 573.992C598.325 573.992 602.443 571.936 606.56 567.825C610.648 563.713 614.765 559.602 614.765 551.41C614.765 508.242 610.647 458.938 610.647 417.856C610.647 411.689 606.56 407.578 604.502 403.467C602.443 401.411 602.443 401.411 600.384 401.411V313.08C612.706 308.969 623 298.691 623 284.332V224.719C622.858 222.585 621.945 220.575 620.43 219.063C618.915 217.55 616.902 216.638 614.765 216.497C612.633 216.645 610.627 217.56 609.119 219.072C607.61 220.584 606.701 222.59 606.56 224.719V284.271C606.599 286.39 606.041 288.478 604.949 290.295C603.857 292.112 602.275 293.586 600.384 294.549V212.385C598.325 206.219 594.208 202.138 590.09 202.138ZM392.541 237.053C324.663 237.053 269.107 292.524 269.107 358.273C269.107 424.023 324.663 479.494 392.541 479.494C460.449 479.494 516.005 424.023 516.005 358.273C516.005 292.524 460.449 237.053 392.541 237.053ZM392.541 253.498C420.343 253.601 446.976 264.672 466.638 284.298C486.3 303.924 497.395 330.514 497.507 358.273C497.395 386.032 486.3 412.622 466.638 432.248C446.976 451.874 420.343 462.946 392.541 463.049C334.956 463.049 285.546 415.8 285.546 358.273C287.605 300.746 334.956 253.498 392.541 253.498ZM392.541 278.165C371.272 278.197 350.884 286.647 335.845 301.663C320.805 316.68 312.342 337.037 312.31 358.273C312.342 379.51 320.805 399.867 335.845 414.883C350.884 429.899 371.272 438.35 392.541 438.382C437.833 438.382 474.861 401.411 474.861 358.273C474.861 315.136 437.833 278.165 392.541 278.165Z" fill="white"/>
</g>
<defs>
<clipPath id="clip0_241_14">
<rect width="806" height="806" fill="white"/>
</clipPath>
</defs>
</svg>
